#!OML:ASF F:\VICON\USERDATA\INSTALL\rory3\rory3.ASF
:FULLY-SPECIFIED
:DEGREES
246
root 4.48413 16.5323 -15.2661 27.5762 6.88998 -4.77826
lowerback -17.816 -0.725413 5.79557
upperback -10.3047 -1.83563 5.15988
thorax -1.11238 -1.01488 1.89231
lowerneck -13.2286 -2.38219 -0.504515
upperneck 42.7001 -3.2223 -1.12313
head 18.1807 -1.52386 -1.0335
rclavicle 4.7112e-014 -6.44062e-014
rhumerus -48.1659 0.935404 -75.0617
rradius 17.1052
rwrist -3.64417
rhand 2.11625 13.5405
rfingers 7.12502
rthumb 27.6158 -14.4529
lclavicle 4.7112e-014 -6.44062e-014
lhumerus -55.9863 -3.81823 93.1723
lradius 29.1136
lwrist 2.09429
lhand 1.5962 14.3785
lfingers 7.12502
lthumb 27.1183 42.4505
rfemur -41.1222 2.7345 35.6222
rtibia 29.7327
rfoot -28.9314 -29.0144
rtoes 20.2543
lfemur -19.3243 20.7693 -26.5416
ltibia 39.5629
lfoot 41.7361 32.1402
ltoes 6.31072
247
root 4.49764 16.5294 -15.2537 27.1757 6.66219 -4.95222
lowerback -17.4212 -0.626666 6.05785
upperback -10.304 -1.70785 5.13901
thorax -1.32658 -0.96714 1.75123
lowerneck -13.028 -2.37654 -0.577808
upperneck 42.7817 -3.22777 -1.04446
head 18.1804 -1.52783 -0.982037
rclavicle 1.89342e-014 -1.11319e-014
rhumerus -48.4221 2.18494 -75.8038
rradius 17.2242
rwrist -3.94555
rhand 2.57769 13.1541
rfingers 7.12502
rthumb 28.0569 -14.7679
lclavicle 1.89342e-014 -1.11319e-014
lhumerus -56.3463 -3.71485 93.1161
lradius 29.1636
lwrist 1.95819
lhand 1.74072 14.1703
lfingers 7.12502
lthumb 27.2566 42.2207
rfemur -40.6045 2.20044 35.946
rtibia 29.6859
rfoot -28.405 -28.4981
rtoes 19.5904
lfemur -18.7281 21.0429 -26.3523
ltibia 39.4969
lfoot 40.307 33.7343
ltoes 9.95107
248
root 4.50105 16.5272 -15.2507 27.0234 6.62007 -4.9968
lowerback -17.2133 -0.607401 6.12626
upperback -10.3604 -1.66769 5.10612
thorax -1.49891 -0.954869 1.68949
lowerneck -12.7834 -2.38274 -0.624291
upperneck 42.7752 -3.27904 -0.91753
head 18.1151 -1.54039 -0.918051
rclavicle -2.41026e-015 3.33958e-014
rhumerus -48.8757 3.4484 -76.653
rradius 17.7347
rwrist -4.19501
rhand 2.87629 13.1249
rfingers 7.12502
rthumb 28.3423 -14.75
lclavicle -2.41026e-015 3.33958e-014
lhumerus -56.6619 -3.55949 92.917
lradius 29.1131
lwrist 1.62658
lhand 1.76038 13.7741
lfingers 7.12502
lthumb 27.2754 41.8216
rfemur -40.4008 1.94001 36.0895
rtibia 29.6473
rfoot -28.0987 -28.3462
rtoes 18.8319
lfemur -18.4813 21.076 -26.2688
ltibia 39.4876
lfoot 41.9974 30.5132
ltoes 2.88387
249
root 4.50094 16.5265 -15.2507 27.0605 6.6655 -5.00435
lowerback -17.351 -0.630464 6.10345
upperback -10.3082 -1.71216 5.1148
thorax -1.37009 -0.97297 1.70074
lowerneck -12.7129 -2.38069 -0.594128
upperneck 42.6417 -3.2971 -0.884368
head 18.0152 -1.54053 -0.906756
rclavicle -2.00773e-014 4.85035e-014
rhumerus -48.8129 4.17062 -77.0249
rradius 17.722
rwrist -3.81296
rhand 3.12899 14.0749
rfingers 7.12502
rthumb 28.5838 -13.7597
lclavicle -2.00773e-014 4.85035e-014
lhumerus -56.6411 -3.48448 92.831
lradius 29.0868
lwrist 1.44266
lhand 1.57765 13.4233
lfingers 7.12502
lthumb 27.1006 41.498
rfemur -40.4476 1.89342 36.1292
rtibia 29.6378
rfoot -28.0461 -28.2948
rtoes 18.9599
lfemur -18.4839 21.1085 -26.2548
ltibia 39.4384
lfoot 38.4076 35.7737
ltoes 13.7705
250
root 4.50314 16.529 -15.2514 27.0873 6.7464 -5.08692
lowerback -17.4871 -0.59853 6.22346
upperback -10.2199 -1.7067 5.09413
thorax -1.20961 -0.971862 1.60818
lowerneck -12.7491 -2.42304 -0.598773
upperneck 42.5744 -3.40186 -0.786928
head 17.9873 -1.57046 -0.878796
rclavicle -3.55328e-015 -7.95139e-015
rhumerus -48.8064 4.91098 -77.5192
rradius 18.0271
rwrist -3.78733
rhand 3.94789 14.3077
rfingers 7.12502
rthumb 29.3659 -13.3925
lclavicle -3.55328e-015 -7.95139e-015
lhumerus -56.5295 -3.52141 92.7431
lradius 29.2392
lwrist 1.45758
lhand 1.69539 13.5097
lfingers 7.12502
lthumb 27.2132 41.5669
rfemur -40.4956 1.82639 36.2445
rtibia 29.6353
rfoot -28.0269 -28.2469
rtoes 19.1326
lfemur -18.5468 21.137 -26.1664
ltibia 39.4533
lfoot 42.698 29.1549
ltoes -0.503928
251
root 4.50247 16.5286 -15.256 27.078 6.67445 -5.00521
lowerback -17.5057 -0.605431 6.08135
upperback -10.1217 -1.70509 5.06271
thorax -1.08758 -0.962849 1.65119
lowerneck -12.8301 -2.43653 -0.575618
upperneck 42.4823 -3.43959 -0.759099
head 17.9539 -1.57872 -0.876669
rclavicle -3.598e-014 8.26944e-014
rhumerus -48.9175 5.98911 -78.2257
rradius 18.5777
rwrist -3.94339
rhand 4.93039 13.2953
rfingers 7.12502
rthumb 30.3036 -14.2366
lclavicle -3.598e-014 8.26944e-014
lhumerus -56.3212 -3.41367 92.5631
lradius 29.3172
lwrist 1.29254
lhand 2.11383 13.8796
lfingers 7.12502
lthumb 27.6134 41.8735
rfemur -40.5129 1.93622 36.1066
rtibia 29.6456
rfoot -27.9336 -28.4866
rtoes 18.7822
lfemur -18.5531 21.1794 -26.2903
ltibia 39.4568
lfoot 35.0178 39.4674
ltoes 21.0872
252
root 4.5007 16.5281 -15.2612 27.0705 6.59352 -4.96047
lowerback -17.8135 -0.556613 5.99561
upperback -9.79959 -1.68238 5.00205
thorax -0.576595 -0.936931 1.62537
lowerneck -13.2918 -2.43461 -0.453015
upperneck 42.3706 -3.45913 -0.783482
head 18.0066 -1.56752 -0.921178
rclavicle 4.33599e-015 -1.03368e-014
rhumerus -48.5304 6.6191 -78.5905
rradius 18.692
rwrist -3.53742
rhand 5.53877 12.71
rfingers 7.12502
rthumb 30.8837 -14.7135
lclavicle 4.33599e-015 -1.03368e-014
lhumerus -55.7437 -3.51396 92.4773
lradius 29.2586
lwrist 1.13055
lhand 2.33222 13.9647
lfingers 7.12502
lthumb 27.8223 41.9249
rfemur -40.5345 2.09672 35.9981
rtibia 29.6598
rfoot -27.8295 -28.7523
rtoes 18.3716
lfemur -18.5664 21.2228 -26.3792
ltibia 39.4544
lfoot 41.3797 31.6595
ltoes 4.00512
253
root 4.50105 16.5271 -15.2629 27.0465 6.49825 -4.91444
lowerback -17.5229 -0.553033 5.92073
upperback -9.95838 -1.62679 4.95059
thorax -0.896182 -0.915214 1.62974
lowerneck -13.2371 -2.41064 -0.275905
upperneck 42.4872 -3.44958 -0.866471
head 18.054 -1.54552 -0.991424
rclavicle -5.10255e-014 6.04305e-014
rhumerus -48.8631 7.18478 -78.7776
rradius 18.9672
rwrist -3.18295
rhand 6.14099 12.705
rfingers 7.12502
rthumb 31.4577 -14.6083
lclavicle -5.10255e-014 6.04305e-014
lhumerus -56.0232 -3.48669 92.3701
lradius 29.3076
lwrist 0.927217
lhand 2.38936 13.9407
lfingers 7.12502
lthumb 27.8769 41.8921
rfemur -40.5447 2.18072 35.8985
rtibia 29.706
rfoot -27.712 -28.8398
rtoes 18.49
lfemur -18.5252 21.3049 -26.4565
ltibia 39.4602
lfoot 33.3727 40.087
ltoes 25.0852
254
root 4.5011 16.5259 -15.2627 27.0162 6.47264 -4.89719
lowerback -17.451 -0.573396 5.90419
upperback -9.94828 -1.64551 4.93231
thorax -0.922251 -0.925143 1.61735
lowerneck -13.2148 -2.42044 -0.359671
upperneck 42.4333 -3.49135 -0.740825
head 18.0221 -1.56004 -0.923909
rclavicle -2.60284e-014 4.53229e-014
rhumerus -48.8702 7.72533 -78.907
rradius 19.2078
rwrist -3.06123
rhand 6.69927 13.2092
rfingers 7.12502
rthumb 31.9894 -13.9989
lclavicle -2.60284e-014 4.53229e-014
lhumerus -56.0457 -3.43783 92.2904
lradius 29.3025
lwrist 0.86341
lhand 2.50699 14.0246
lfingers 7.12502
lthumb 27.9894 41.9577
rfemur -40.5447 2.16675 35.887
rtibia 29.7624
rfoot -27.4812 -28.9322
rtoes 18.2255
lfemur -18.5298 21.3269 -26.4677
ltibia 39.5628
lfoot 42.6593 28.6936
ltoes -2.56057
